PathFileType	4	(X/Y/Z)	/Users/itak/Documents/Research/Walk-IL/dataset/trc/00509_00183.trc
DataRate	CameraRate	NumFrames	NumMarkers	Units	OrigDataRate	OrigDataStartFrame	OrigNumFrames
100.000000	100.000000	4	53	mm	100.000000	0	366
Frame#	Time	RPSI			LPSI			L3			STRN			T10			C7			CLAV			RBAK			LBAK			LSHO			LUPA			LAEL			LAOL			LWTS			LWPS			LFRA			LIFD			LHPS			LHTS			RSHO			RUPA			RAEL			RAOL			RWTS			RWPS			RFRA			RIFD			RHTS			RHPS			RBHD			LFHD			RFHD			LBHD			LHIP			RHIP			RASI			LASI			LKNE			LTHI			LANK			LTIP			LTOE			LMT1			LMT5			LHEE			RKNE			RTHI			RANK			RTIP			RTOE			RMT1			RMT5			RHEE			
		X1	Y1	Z1	X2	Y2	Z2	X3	Y3	Z3	X4	Y4	Z4	X5	Y5	Z5	X6	Y6	Z6	X7	Y7	Z7	X8	Y8	Z8	X9	Y9	Z9	X10	Y10	Z10	X11	Y11	Z11	X12	Y12	Z12	X13	Y13	Z13	X14	Y14	Z14	X15	Y15	Z15	X16	Y16	Z16	X17	Y17	Z17	X18	Y18	Z18	X19	Y19	Z19	X20	Y20	Z20	X21	Y21	Z21	X22	Y22	Z22	X23	Y23	Z23	X24	Y24	Z24	X25	Y25	Z25	X26	Y26	Z26	X27	Y27	Z27	X28	Y28	Z28	X29	Y29	Z29	X30	Y30	Z30	X31	Y31	Z31	X32	Y32	Z32	X33	Y33	Z33	X34	Y34	Z34	X35	Y35	Z35	X36	Y36	Z36	X37	Y37	Z37	X38	Y38	Z38	X39	Y39	Z39	X40	Y40	Z40	X41	Y41	Z41	X42	Y42	Z42	X43	Y43	Z43	X44	Y44	Z44	X45	Y45	Z45	X46	Y46	Z46	X47	Y47	Z47	X48	Y48	Z48	X49	Y49	Z49	X50	Y50	Z50	X51	Y51	Z51	X52	Y52	Z52	X53	Y53	Z53	

1	0	-1193.078247070312	970.1826171875	-534.82275390625	-1122.510009765625	969.8167114257812	-635.9358520507812	-1166.751708984375	1033.3271484375	-592.0779418945312	-975.2694091796875	1204.390991210938	-483.7117614746094	-1183.488159179688	1139.923706054688	-595.09814453125	-1148.338256835938	1369.677978515625	-569.2705688476562	-1008.754577636719	1298.603759765625	-501.1382446289062	-1226.745849609375	1246.521850585938	-515.506103515625	-1132.095581054688	1316.484252929688	-657.5741577148438	-1015.586059570312	1367.307739257812	-682.0924682617188	-999.839111328125	1241.367431640625	-743.2051391601562	-976.4478759765625	1031.319946289062	-761.6195678710938	-1069.587280273438	1020.915954589844	-726.1683349609375	-897.5023803710938	850.8353881835938	-679.5992431640625	-950.0966186523438	809.2067260742188	-746.0164794921875	-956.4860229492188	948.9822998046875	-752.0007934570312	-893.0650024414062	694.7422485351562	-660.8729248046875	-926.08349609375	756.556396484375	-729.7133178710938	-877.1597900390625	773.5336303710938	-689.5662841796875	-1167.216674804688	1364.457885742188	-413.3015441894531	-1208.382080078125	1295.93994140625	-371.7500610351562	-1214.37158203125	1026.65771484375	-334.1870422363281	-1245.14453125	1009.884765625	-390.5853881835938	-1093.215209960938	836.0662231445312	-324.1598815917969	-1177.783081054688	806.5265502929688	-307.5810852050781	-1210.887817382812	972.7232055664062	-326.4398803710938	-1078.931030273438	677.1672973632812	-320.4679870605469	-1080.43896484375	743.7941284179688	-294.8417053222656	-1151.144409179688	736.0831909179688	-297.5754089355469	-1159.775146484375	1521.68603515625	-483.8283081054688	-987.9821166992188	1600.732177734375	-551.918212890625	-1051.870483398438	1595.957275390625	-441.2767639160156	-1092.6630859375	1521.068603515625	-628.5081176757812	-944.342529296875	905.0183715820312	-652.9369506835938	-1176.479614257812	871.8671875	-375.9586181640625	-1054.216064453125	915.0908203125	-372.0820922851562	-922.5536499023438	929.4856567382812	-576.1177978515625	-979.4357299804688	473.8318786621094	-644.990234375	-952.67138671875	631.1497802734375	-658.520751953125	-1083.626953125	47.37893295288086	-698.3396606445312	-1010.64599609375	325.8848876953125	-668.512451171875	-949.0812377929688	38.84210205078125	-540.7804565429688	-1031.734252929688	42.92843246459961	-556.9609985351562	-984.5301513671875	46.2476692199707	-647.0908203125	-1157.511474609375	39.18281936645508	-672.4856567382812	-1156.44482421875	482.8645629882812	-401.1607971191406	-1157.208374023438	741.7969360351562	-357.9071960449219	-1210.932983398438	50.65752792358398	-465.4444885253906	-1151.045288085938	337.7005920410156	-415.82373046875	-1017.951782226562	43.89641189575195	-394.2942810058594	-1054.157592773438	47.35463714599609	-460.5874328613281	-1122.489379882812	49.29937362670898	-392.2063903808594	-1228.139404296875	39.58034515380859	-534.5361938476562	
2	0.01	-1192.967041015625	970.1690673828125	-534.6351318359375	-1122.368286132812	969.7711181640625	-635.8193359375	-1166.639770507812	1033.33349609375	-591.916259765625	-975.1688232421875	1204.348999023438	-483.5916137695312	-1183.378540039062	1139.90185546875	-594.968505859375	-1148.208984375	1369.661254882812	-569.0958251953125	-1008.61376953125	1298.575439453125	-501.03271484375	-1226.658935546875	1246.53515625	-515.359375	-1131.977905273438	1316.45751953125	-657.3880615234375	-1015.42822265625	1367.278930664062	-681.9103393554688	-999.7456665039062	1241.340698242188	-742.9996337890625	-976.3558959960938	1031.274658203125	-761.428955078125	-1069.538330078125	1020.950073242188	-726.0076293945312	-897.5035400390625	850.8373413085938	-679.365478515625	-949.9603881835938	809.1461181640625	-745.822509765625	-956.35791015625	948.9624633789062	-751.819091796875	-892.8812866210938	694.8042602539062	-660.5782470703125	-925.884765625	756.6441040039062	-729.6250610351562	-876.864013671875	773.5730590820312	-689.3084106445312	-1167.119750976562	1364.457153320312	-413.1286315917969	-1208.262939453125	1295.919067382812	-371.6395568847656	-1214.264282226562	1026.656616210938	-333.9976806640625	-1245.023559570312	1009.889282226562	-390.3967590332031	-1093.124389648438	836.027587890625	-324.0092163085938	-1177.720092773438	806.5130615234375	-307.4081115722656	-1210.797973632812	972.7086181640625	-326.2370910644531	-1078.898071289062	677.1434326171875	-320.3066101074219	-1080.416259765625	743.7554931640625	-294.6309204101562	-1151.105712890625	736.06982421875	-297.3714904785156	-1159.670166015625	1521.674194335938	-483.7359008789062	-987.8591918945312	1600.704223632812	-551.8431396484375	-1051.756103515625	1595.999145507812	-441.174560546875	-1092.496215820312	1520.985717773438	-628.3911743164062	-947.1766967773438	902.9337768554688	-658.6787109375	-1176.078125	871.5989379882812	-375.5831604003906	-1054.155029296875	915.0732421875	-371.869384765625	-922.494384765625	929.4324951171875	-575.9228515625	-979.4130859375	473.8240051269531	-644.903076171875	-952.655029296875	631.1022338867188	-658.4183959960938	-1083.611694335938	47.38838958740234	-698.322509765625	-1010.658813476562	325.8557434082031	-668.447021484375	-949.0433959960938	38.83467102050781	-540.82177734375	-1031.733276367188	42.92507171630859	-556.9620361328125	-984.5271606445312	46.25045394897461	-647.0899047851562	-1157.509887695312	39.18191528320312	-672.4891357421875	-1156.41357421875	482.8646545410156	-401.0325927734375	-1157.145263671875	741.7760620117188	-357.7421569824219	-1210.924438476562	50.65349578857422	-465.4559326171875	-1151.02294921875	337.6803588867188	-415.7701721191406	-1017.940246582031	43.87691116333008	-394.3075256347656	-1054.151000976562	47.35275650024414	-460.5892333984375	-1122.48974609375	49.31298446655273	-392.2202758789062	-1228.139892578125	39.58111190795898	-534.5364379882812	
3	0.02	-1192.825805664062	970.1476440429688	-534.4061889648438	-1122.177490234375	969.7114868164062	-635.66552734375	-1166.4951171875	1033.341430664062	-591.7107543945312	-975.0416870117188	1204.296752929688	-483.4393615722656	-1183.239624023438	1139.881713867188	-594.7993774414062	-1148.037353515625	1369.640014648438	-568.8905639648438	-1008.442810058594	1298.540893554688	-500.8929748535156	-1226.540161132812	1246.54736328125	-515.17919921875	-1131.827758789062	1316.428100585938	-657.1683959960938	-1015.234252929688	1367.248291015625	-681.685546875	-999.6288452148438	1241.30712890625	-742.7456665039062	-976.2401123046875	1031.220825195312	-761.1959838867188	-1069.444458007812	1020.961364746094	-725.8070068359375	-897.4804077148438	850.8396606445312	-679.0617065429688	-949.7929077148438	809.0739135742188	-745.5714721679688	-956.1911010742188	948.9310913085938	-751.5867919921875	-892.65673828125	694.8719482421875	-660.2011108398438	-925.62939453125	756.7377319335938	-729.4859008789062	-876.5421142578125	773.5993041992188	-688.9866333007812	-1166.999877929688	1364.456665039062	-412.9135131835938	-1208.1181640625	1295.897583007812	-371.4921569824219	-1214.134033203125	1026.657592773438	-333.7742614746094	-1244.877807617188	1009.892822265625	-390.1689758300781	-1093.014038085938	835.9812622070312	-323.8128967285156	-1177.649047851562	806.500244140625	-307.1898498535156	-1210.68212890625	972.6915283203125	-326.0007019042969	-1078.858276367188	677.1112670898438	-320.0918579101562	-1080.402465820312	743.712158203125	-294.3525390625	-1151.055908203125	736.0533447265625	-297.1237182617188	-1159.531860351562	1521.661865234375	-483.6152648925781	-987.6980590820312	1600.663330078125	-551.73779296875	-1051.600341796875	1596.045532226562	-441.0457763671875	-1092.291870117188	1520.89111328125	-628.2417602539062	-950.22607421875	900.682861328125	-664.865478515625	-1175.537841796875	871.2313232421875	-375.099365234375	-1054.072265625	915.0526733398438	-371.6170043945312	-922.4176635742188	929.3695068359375	-575.6697998046875	-979.3875122070312	473.8095092773438	-644.792724609375	-952.6289672851562	631.0432739257812	-658.2828979492188	-1083.59228515625	47.40336608886719	-698.2994995117188	-1010.661437988281	325.8233032226562	-668.3619995117188	-949.0068969726562	38.82790374755859	-540.8601684570312	-1031.732666015625	42.92043685913086	-556.962646484375	-984.5238037109375	46.25374221801758	-647.08984375	-1157.506958007812	39.18123245239258	-672.49462890625	-1156.365478515625	482.861083984375	-400.8922424316406	-1157.056396484375	741.750732421875	-357.533203125	-1210.9150390625	50.650146484375	-465.4663391113281	-1150.991088867188	337.6565551757812	-415.7015991210938	-1017.926940917969	43.85490036010742	-394.3204345703125	-1054.14111328125	47.34880447387695	-460.5929565429688	-1122.490234375	49.32449340820312	-392.234130859375	-1228.139892578125	39.58414077758789	-534.5366821289062	
4	0.03	-1192.6591796875	970.1177368164062	-534.1487426757812	-1121.939086914062	969.6408081054688	-635.475341796875	-1166.321899414062	1033.350341796875	-591.4716796875	-974.8943481445312	1204.236083984375	-483.2582702636719	-1183.07470703125	1139.86572265625	-594.595703125	-1147.827392578125	1369.614135742188	-568.6676025390625	-1008.252746582031	1298.50146484375	-500.720458984375	-1226.391479492188	1246.555786132812	-514.9761352539062	-1131.648681640625	1316.39794921875	-656.9266967773438	-1015.015197753906	1367.220092773438	-681.4302368164062	-999.489501953125	1241.266479492188	-742.45458984375	-976.1039428710938	1031.162963867188	-760.9338989257812	-1069.291748046875	1020.933959960938	-725.5712890625	-897.4172973632812	850.8424682617188	-678.697509765625	-949.5961303710938	808.99755859375	-745.26708984375	-955.9911499023438	948.8870239257812	-751.3125	-892.4073486328125	694.93310546875	-659.753662109375	-925.3294067382812	756.8235473632812	-729.2864990234375	-876.2314453125	773.6009521484375	-688.61572265625	-1166.861450195312	1364.456665039062	-412.6669311523438	-1207.955810546875	1295.878295898438	-371.3106079101562	-1213.989135742188	1026.661254882812	-333.53076171875	-1244.715576171875	1009.893737792969	-389.9174194335938	-1092.892700195312	835.9306640625	-323.5733642578125	-1177.576538085938	806.4891357421875	-306.9353332519531	-1210.545288085938	972.6743774414062	-325.7468566894531	-1078.815063476562	677.0717163085938	-319.8255615234375	-1080.400390625	743.667724609375	-294.0169677734375	-1150.998657226562	736.0359497070312	-296.8430480957031	-1159.361328125	1521.650756835938	-483.4697570800781	-987.5027465820312	1600.609008789062	-551.60205078125	-1051.404663085938	1596.091064453125	-440.8943481445312	-1092.06005859375	1520.79296875	-628.0651245117188	-953.0462036132812	898.5877075195312	-670.5902709960938	-1174.881591796875	870.7788696289062	-374.5310974121094	-1053.967407226562	915.0296020507812	-371.3413391113281	-922.323974609375	929.30029296875	-575.3657836914062	-979.360595703125	473.7870178222656	-644.6633911132812	-952.586669921875	630.9775390625	-658.1158447265625	-1083.571044921875	47.42381286621094	-698.2717895507812	-1010.648071289062	325.7903137207031	-668.2595825195312	-948.976318359375	38.82263565063477	-540.890380859375	-1031.732177734375	42.91460418701172	-556.96240234375	-984.520263671875	46.25740051269531	-647.0906372070312	-1157.502319335938	39.18091201782227	-672.5022583007812	-1156.299682617188	482.852783203125	-400.7520751953125	-1156.94287109375	741.7225341796875	-357.2881774902344	-1210.905517578125	50.64829254150391	-465.4743347167969	-1150.949584960938	337.6307067871094	-415.6212158203125	-1017.914855957031	43.83198165893555	-394.3303527832031	-1054.129272460938	47.34260940551758	-460.5979919433594	-1122.490966796875	49.33268356323242	-392.2474670410156	-1228.139526367188	39.59059143066406	-534.5370483398438	
